<?xml version="1.0" encoding="UTF-8"?>
<svg width="726" height="609" version="1.1" viewBox="0 0 726 609" xmlns="http://www.w3.org/2000/svg">
 <defs>
  <linearGradient id="linearGradient840" x2="1" gradientTransform="matrix(0,150,150,0,273,367)" gradientUnits="userSpaceOnUse">
   <stop stop-color="#231f20" offset="0"/>
   <stop stop-color="#58595b" offset="1"/>
  </linearGradient>
  <clipPath id="clipPath850">
   <path d="m0 0h546v546h-546z"/>
  </clipPath>
  <linearGradient id="linearGradient872" x2="1" gradientTransform="matrix(129,0,0,-129,48.8,461)" gradientUnits="userSpaceOnUse">
   <stop stop-color="#231f20" offset="0"/>
   <stop stop-color="#231f20" offset="1"/>
  </linearGradient>
  <linearGradient id="linearGradient892" x2="1" gradientTransform="matrix(0,154,154,0,179,428)" gradientUnits="userSpaceOnUse">
   <stop stop-color="#333132" offset="0"/>
   <stop stop-color="#5f6062" offset="1"/>
  </linearGradient>
  <linearGradient id="linearGradient922" x2="1" gradientTransform="matrix(19,0,0,-19,82.5,405)" gradientUnits="userSpaceOnUse">
   <stop stop-color="#333132" offset="0"/>
   <stop stop-color="#464547" offset="1"/>
  </linearGradient>
  <linearGradient id="linearGradient942" x2="1" gradientTransform="matrix(147,0,0,-147,149,371)" gradientUnits="userSpaceOnUse">
   <stop stop-color="#b3b5b8" offset="0"/>
   <stop stop-color="#e6e7e8" offset=".766"/>
   <stop stop-color="#e6e7e8" offset="1"/>
  </linearGradient>
  <linearGradient id="linearGradient960" x2="1" gradientTransform="matrix(30.1,0,0,-30.1,61,397)" gradientUnits="userSpaceOnUse">
   <stop stop-color="#231f20" offset="0"/>
   <stop stop-color="#231f20" offset="1"/>
  </linearGradient>
  <linearGradient id="linearGradient978" x2="1" gradientTransform="matrix(222,0,0,-222,0,307)" gradientUnits="userSpaceOnUse">
   <stop stop-color="#5f6062" offset="0"/>
   <stop stop-color="#b3b5b8" offset="1"/>
  </linearGradient>
  <linearGradient id="linearGradient998" x2="1" gradientTransform="matrix(40.4,0,0,-40.4,124,231)" gradientUnits="userSpaceOnUse">
   <stop stop-color="#2f9860" offset="0"/>
   <stop stop-color="#2f9860" offset=".553"/>
   <stop stop-color="#b0d136" offset="1"/>
  </linearGradient>
  <clipPath id="clipPath1008">
   <path d="m0 0h546v546h-546z"/>
  </clipPath>
  <clipPath id="clipPath1016">
   <path d="m94.8 291h43.2v-35h-43.2z"/>
  </clipPath>
  <linearGradient id="linearGradient1028" x2="1" gradientTransform="matrix(20.7,0,0,-20.7,117,273)" gradientUnits="userSpaceOnUse">
   <stop stop-color="#b35a3b" offset="0"/>
   <stop stop-color="#b35a3b" offset=".362"/>
   <stop stop-color="#fcb22f" offset="1"/>
  </linearGradient>
  <linearGradient id="linearGradient1040" x2="1" gradientTransform="matrix(32.6,0,0,-32.6,94.8,264)" gradientUnits="userSpaceOnUse">
   <stop stop-color="#b35a3b" offset="0"/>
   <stop stop-color="#b35a3b" offset=".362"/>
   <stop stop-color="#fcb22f" offset="1"/>
  </linearGradient>
  <linearGradient id="linearGradient1080" x2="1" gradientTransform="matrix(66.4,0,0,-66.4,156,185)" gradientUnits="userSpaceOnUse">
   <stop stop-color="#009dca" offset="0"/>
   <stop stop-color="#22c1e1" offset="1"/>
  </linearGradient>
  <linearGradient id="linearGradient1098" x2="1" gradientTransform="matrix(44.1,0,0,-44.1,201,203)" gradientUnits="userSpaceOnUse">
   <stop stop-color="#39c6f4" offset="0"/>
   <stop stop-color="#8fd6e5" offset="1"/>
  </linearGradient>
  <linearGradient id="linearGradient1116" x2="1" gradientTransform="matrix(74.6,0,0,-74.6,216,198)" gradientUnits="userSpaceOnUse">
   <stop stop-color="#5f6062" offset="0"/>
   <stop stop-color="#b3b5b8" offset="1"/>
  </linearGradient>
  <linearGradient id="linearGradient1136" x2="1" gradientTransform="matrix(49.1,0,0,-49.1,266,219)" gradientUnits="userSpaceOnUse">
   <stop stop-color="#b3b5b8" offset="0"/>
   <stop stop-color="#e6e7e8" offset=".766"/>
   <stop stop-color="#e6e7e8" offset="1"/>
  </linearGradient>
  <linearGradient id="linearGradient1154" x2="1" gradientTransform="matrix(49.6,0,0,-49.6,274,219)" gradientUnits="userSpaceOnUse">
   <stop stop-color="#009dca" offset="0"/>
   <stop stop-color="#22c1e1" offset="1"/>
  </linearGradient>
  <linearGradient id="linearGradient1172" x2="1" gradientTransform="matrix(35.1,0,0,-35.1,307,233)" gradientUnits="userSpaceOnUse">
   <stop stop-color="#39c6f4" offset="0"/>
   <stop stop-color="#8fd6e5" offset="1"/>
  </linearGradient>
  <clipPath id="clipPath1182">
   <path d="m0 0h546v546h-546z"/>
  </clipPath>
  <clipPath id="clipPath1190">
   <path d="m337 259h26v-16h-26z"/>
  </clipPath>
  <linearGradient id="linearGradient1202" x2="1" gradientTransform="matrix(26.2,0,0,-26.2,337,251)" gradientUnits="userSpaceOnUse">
   <stop stop-color="#045b37" offset="0"/>
   <stop stop-color="#045b37" offset=".553"/>
   <stop stop-color="#009349" offset="1"/>
  </linearGradient>
  <clipPath id="clipPath1224">
   <path d="m355 273h16v-30h-16z"/>
  </clipPath>
  <linearGradient id="linearGradient1234" x2="1" gradientTransform="matrix(16.1,0,0,-16.1,355,258)" gradientUnits="userSpaceOnUse">
   <stop stop-color="#69a15e" offset="0"/>
   <stop stop-color="#b0d136" offset="1"/>
  </linearGradient>
  <linearGradient id="linearGradient1266" x2="1" gradientTransform="matrix(44.7,0,0,-44.7,178,127)" gradientUnits="userSpaceOnUse">
   <stop stop-color="#2f9860" offset="0"/>
   <stop stop-color="#2f9860" offset=".553"/>
   <stop stop-color="#b0d136" offset="1"/>
  </linearGradient>
  <clipPath id="clipPath1276">
   <path d="m0 0h546v546h-546z"/>
  </clipPath>
  <clipPath id="clipPath1284">
   <path d="m207 165h29v-51h-29z"/>
  </clipPath>
  <linearGradient id="linearGradient1294" x2="1" gradientTransform="matrix(29,0,0,-29,207,140)" gradientUnits="userSpaceOnUse">
   <stop stop-color="#69a15e" offset="0"/>
   <stop stop-color="#b0d136" offset="1"/>
  </linearGradient>
  <linearGradient id="linearGradient1324" x2="1" gradientTransform="matrix(21.9,0,0,-21.9,156,146)" gradientUnits="userSpaceOnUse">
   <stop stop-color="#5f6062" offset="0"/>
   <stop stop-color="#b3b5b8" offset="1"/>
  </linearGradient>
  <linearGradient id="linearGradient1344" x2="1" gradientTransform="matrix(14,0,0,-14,171,153)" gradientUnits="userSpaceOnUse">
   <stop stop-color="#b3b5b8" offset="0"/>
   <stop stop-color="#e6e7e8" offset=".766"/>
   <stop stop-color="#e6e7e8" offset="1"/>
  </linearGradient>
  <linearGradient id="linearGradient1362" x2="1" gradientTransform="matrix(20.4,0,0,-20.4,171,94.8)" gradientUnits="userSpaceOnUse">
   <stop stop-color="#5f6062" offset="0"/>
   <stop stop-color="#b3b5b8" offset="1"/>
  </linearGradient>
  <linearGradient id="linearGradient1382" x2="1" gradientTransform="matrix(14.8,0,0,-14.8,185,101)" gradientUnits="userSpaceOnUse">
   <stop stop-color="#b3b5b8" offset="0"/>
   <stop stop-color="#e6e7e8" offset=".766"/>
   <stop stop-color="#e6e7e8" offset="1"/>
  </linearGradient>
  <linearGradient id="linearGradient1400" x2="1" gradientTransform="matrix(33,0,0,-33,386,229)" gradientUnits="userSpaceOnUse">
   <stop stop-color="#5f6062" offset="0"/>
   <stop stop-color="#b3b5b8" offset="1"/>
  </linearGradient>
  <linearGradient id="linearGradient1420" x2="1" gradientTransform="matrix(23,0,0,-23,408,239)" gradientUnits="userSpaceOnUse">
   <stop stop-color="#b3b5b8" offset="0"/>
   <stop stop-color="#e6e7e8" offset=".766"/>
   <stop stop-color="#e6e7e8" offset="1"/>
  </linearGradient>
  <linearGradient id="linearGradient1438" x2="1" gradientTransform="matrix(72.5,0,0,-72.5,347,280)" gradientUnits="userSpaceOnUse">
   <stop stop-color="#009dca" offset="0"/>
   <stop stop-color="#22c1e1" offset="1"/>
  </linearGradient>
  <linearGradient id="linearGradient1456" x2="1" gradientTransform="matrix(49.9,0,0,-49.9,394,299)" gradientUnits="userSpaceOnUse">
   <stop stop-color="#39c6f4" offset="0"/>
   <stop stop-color="#8fd6e5" offset="1"/>
  </linearGradient>
  <linearGradient id="linearGradient1476" x2="1" gradientTransform="matrix(135,0,0,-135,189,304)" gradientUnits="userSpaceOnUse">
   <stop stop-color="#2f9860" offset="0"/>
   <stop stop-color="#2f9860" offset=".553"/>
   <stop stop-color="#b0d136" offset="1"/>
  </linearGradient>
  <clipPath id="clipPath1486">
   <path d="m0 0h546v546h-546z"/>
  </clipPath>
  <clipPath id="clipPath1494">
   <path d="m280 421h91v-156h-91z"/>
  </clipPath>
  <linearGradient id="linearGradient1504" x2="1" gradientTransform="matrix(91,0,0,-91,280,343)" gradientUnits="userSpaceOnUse">
   <stop stop-color="#69a15e" offset="0"/>
   <stop stop-color="#b0d136" offset="1"/>
  </linearGradient>
  <linearGradient id="linearGradient1534" x2="1" gradientTransform="matrix(36.2,0,0,-36.2,371,332)" gradientUnits="userSpaceOnUse">
   <stop stop-color="#009dca" offset="0"/>
   <stop stop-color="#22c1e1" offset="1"/>
  </linearGradient>
  <linearGradient id="linearGradient1552" x2="1" gradientTransform="matrix(26.4,0,0,-26.4,394,343)" gradientUnits="userSpaceOnUse">
   <stop stop-color="#39c6f4" offset="0"/>
   <stop stop-color="#8fd6e5" offset="1"/>
  </linearGradient>
  <linearGradient id="linearGradient1570" x2="1" gradientTransform="matrix(29.6,0,0,-29.6,320,323)" gradientUnits="userSpaceOnUse">
   <stop stop-color="#5f6062" offset="0"/>
   <stop stop-color="#b3b5b8" offset="1"/>
  </linearGradient>
  <linearGradient id="linearGradient1588" x2="1" gradientTransform="matrix(88.5,0,0,-88.5,268,395)" gradientUnits="userSpaceOnUse">
   <stop stop-color="#009dca" offset="0"/>
   <stop stop-color="#22c1e1" offset="1"/>
  </linearGradient>
  <linearGradient id="linearGradient1606" x2="1" gradientTransform="matrix(33.1,0,0,-33.1,268,463)" gradientUnits="userSpaceOnUse">
   <stop stop-color="#009dca" offset="0"/>
   <stop stop-color="#22c1e1" offset="1"/>
  </linearGradient>
  <linearGradient id="linearGradient1624" x2="1" gradientTransform="matrix(20.6,0,0,-20.6,291,472)" gradientUnits="userSpaceOnUse">
   <stop stop-color="#39c6f4" offset="0"/>
   <stop stop-color="#8fd6e5" offset="1"/>
  </linearGradient>
  <linearGradient id="linearGradient1642" x2="1" gradientTransform="matrix(64.4,0,0,-64.4,291,490)" gradientUnits="userSpaceOnUse">
   <stop stop-color="#515254" offset="0"/>
   <stop stop-color="#5f6062" offset="1"/>
  </linearGradient>
  <linearGradient id="linearGradient1660" x2="1" gradientTransform="matrix(43,0,0,-43,333,509)" gradientUnits="userSpaceOnUse">
   <stop stop-color="#757679" offset="0"/>
   <stop stop-color="#5f6062" offset="1"/>
  </linearGradient>
  <linearGradient id="linearGradient1678" x2="1" gradientTransform="matrix(36.4,0,0,-36.4,389,462)" gradientUnits="userSpaceOnUse">
   <stop stop-color="#231f20" offset="0"/>
   <stop stop-color="#231f20" offset="1"/>
  </linearGradient>
  <linearGradient id="linearGradient1696" x2="1" gradientTransform="matrix(22.2,0,0,-22.2,414,473)" gradientUnits="userSpaceOnUse">
   <stop stop-color="#333132" offset="0"/>
   <stop stop-color="#5f6062" offset="1"/>
  </linearGradient>
  <linearGradient id="linearGradient1714" x2="1" gradientTransform="matrix(46.1,0,0,-46.1,443,478)" gradientUnits="userSpaceOnUse">
   <stop stop-color="#231f20" offset="0"/>
   <stop stop-color="#231f20" offset="1"/>
  </linearGradient>
  <linearGradient id="linearGradient1732" x2="1" gradientTransform="matrix(30.8,0,0,-30.8,474,491)" gradientUnits="userSpaceOnUse">
   <stop stop-color="#333132" offset="0"/>
   <stop stop-color="#5f6062" offset="1"/>
  </linearGradient>
  <linearGradient id="linearGradient1750" x2="1" gradientTransform="matrix(81.8,0,0,-81.8,463,421)" gradientUnits="userSpaceOnUse">
   <stop stop-color="#b3b5b8" offset="0"/>
   <stop stop-color="#e6e7e8" offset="1"/>
  </linearGradient>
  <linearGradient id="linearGradient1768" x2="1" gradientTransform="matrix(122,0,0,-122,383,387)" gradientUnits="userSpaceOnUse">
   <stop stop-color="#5f6062" offset="0"/>
   <stop stop-color="#b3b5b8" offset="1"/>
  </linearGradient>
  <linearGradient id="linearGradient1786" x2="1" gradientTransform="matrix(58.1,0,0,-58.1,325,420)" gradientUnits="userSpaceOnUse">
   <stop stop-color="#39c6f4" offset="0"/>
   <stop stop-color="#8fd6e5" offset="1"/>
  </linearGradient>
  <clipPath id="clipPath1796">
   <path d="m0 0h546v546h-546z"/>
  </clipPath>
  <clipPath id="clipPath1804">
   <path d="m336 421h22v-38h-22z"/>
  </clipPath>
  <linearGradient id="linearGradient1814" x2="1" gradientTransform="matrix(21.6,0,0,-21.6,336,402)" gradientUnits="userSpaceOnUse">
   <stop stop-color="#009661" offset="0"/>
   <stop stop-color="#58b947" offset="1"/>
  </linearGradient>
  <clipPath id="clipPath1836">
   <path d="m314 403h33v-20h-33z"/>
  </clipPath>
  <linearGradient id="linearGradient1848" x2="1" gradientTransform="matrix(33.9,0,0,-33.9,314,393)" gradientUnits="userSpaceOnUse">
   <stop stop-color="#00732e" offset="0"/>
   <stop stop-color="#00732e" offset=".599"/>
   <stop stop-color="#58b947" offset="1"/>
  </linearGradient>
  <linearGradient id="linearGradient1880" x2="1" gradientTransform="matrix(30.5,0,0,-30.5,233,380)" gradientUnits="userSpaceOnUse">
   <stop stop-color="#b35a3b" offset="0"/>
   <stop stop-color="#b35a3b" offset=".362"/>
   <stop stop-color="#fcb22f" offset="1"/>
  </linearGradient>
  <linearGradient id="linearGradient1900" x2="1" gradientTransform="matrix(18.9,0,0,-18.9,254,388)" gradientUnits="userSpaceOnUse">
   <stop stop-color="#b35a3b" offset="0"/>
   <stop stop-color="#b35a3b" offset=".362"/>
   <stop stop-color="#fcb22f" offset="1"/>
  </linearGradient>
  <clipPath id="clipPath1934">
   <path d="m0 0h546v546h-546z"/>
  </clipPath>
  <clipPath id="clipPath1942">
   <path d="m439 404h35v-61h-35z"/>
  </clipPath>
  <linearGradient id="linearGradient1952" x2="1" gradientTransform="matrix(35.2,0,0,-35.2,439,373)" gradientUnits="userSpaceOnUse">
   <stop stop-color="#69a15e" offset="0"/>
   <stop stop-color="#b0d136" offset="1"/>
  </linearGradient>
  <clipPath id="clipPath1974">
   <path d="m359 403h21v-13h-21z"/>
  </clipPath>
  <linearGradient id="linearGradient1986" x2="1" gradientTransform="matrix(20.4,0,0,-20.4,359,396)" gradientUnits="userSpaceOnUse">
   <stop stop-color="#00732e" offset="0"/>
   <stop stop-color="#00732e" offset=".599"/>
   <stop stop-color="#58b947" offset="1"/>
  </linearGradient>
  <linearGradient id="linearGradient2018" x2="1" gradientTransform="matrix(13.7,0,0,-13.7,372,402)" gradientUnits="userSpaceOnUse">
   <stop stop-color="#2f9860" offset="0"/>
   <stop stop-color="#2f9860" offset=".553"/>
   <stop stop-color="#b0d136" offset="1"/>
  </linearGradient>
  <linearGradient id="linearGradient2038" x2="1" gradientTransform="matrix(17.6,0,0,-17.6,392,436)" gradientUnits="userSpaceOnUse">
   <stop stop-color="#b35a3b" offset="0"/>
   <stop stop-color="#fcb22f" offset=".611"/>
   <stop stop-color="#fcb22f" offset="1"/>
  </linearGradient>
  <linearGradient id="linearGradient2058" x2="1" gradientTransform="matrix(27.7,0,0,-27.7,375,429)" gradientUnits="userSpaceOnUse">
   <stop stop-color="#b35a3b" offset="0"/>
   <stop stop-color="#b35a3b" offset=".362"/>
   <stop stop-color="#fcb22f" offset="1"/>
  </linearGradient>
  <linearGradient id="linearGradient2078" x2="1" gradientTransform="matrix(19.7,0,0,-19.7,340,330)" gradientUnits="userSpaceOnUse">
   <stop stop-color="#b3b5b8" offset="0"/>
   <stop stop-color="#e6e7e8" offset=".766"/>
   <stop stop-color="#e6e7e8" offset="1"/>
  </linearGradient>
  <clipPath id="clipPath2088">
   <path d="m0 0h546v546h-546z"/>
  </clipPath>
  <clipPath id="clipPath2096">
   <path d="m246 371h34v-57h-34z"/>
  </clipPath>
  <linearGradient id="linearGradient2108" x2="1" gradientTransform="matrix(33.8,0,0,-33.8,246,342)" gradientUnits="userSpaceOnUse">
   <stop stop-color="#045b37" offset="0"/>
   <stop stop-color="#045b37" offset=".553"/>
   <stop stop-color="#009349" offset="1"/>
  </linearGradient>
  <clipPath id="clipPath2130">
   <path d="m264 314h50v-30h-50z"/>
  </clipPath>
  <linearGradient id="linearGradient2142" x2="1" gradientTransform="matrix(50,0,0,-50,264,299)" gradientUnits="userSpaceOnUse">
   <stop stop-color="#045b37" offset="0"/>
   <stop stop-color="#045b37" offset=".553"/>
   <stop stop-color="#009349" offset="1"/>
  </linearGradient>
  <clipPath id="clipPath2164">
   <path d="m297 342h33v-58h-33z"/>
  </clipPath>
  <linearGradient id="linearGradient2176" x2="1" gradientTransform="matrix(33.7,0,0,-33.7,297,313)" gradientUnits="userSpaceOnUse">
   <stop stop-color="#045b37" offset="0"/>
   <stop stop-color="#045b37" offset=".553"/>
   <stop stop-color="#009349" offset="1"/>
  </linearGradient>
  <clipPath id="clipPath2198">
   <path d="m214 342h50v-28h-50z"/>
  </clipPath>
  <linearGradient id="linearGradient2210" x2="1" gradientTransform="matrix(49.4,0,0,-49.4,214,328)" gradientUnits="userSpaceOnUse">
   <stop stop-color="#045b37" offset="0"/>
   <stop stop-color="#045b37" offset=".553"/>
   <stop stop-color="#009349" offset="1"/>
  </linearGradient>
  <linearGradient id="linearGradient2252" x2="1" gradientTransform="matrix(33.8,0,0,-33.8,246,357)" gradientUnits="userSpaceOnUse">
   <stop stop-color="#39c6f4" offset="0"/>
   <stop stop-color="#8fd6e5" offset="1"/>
  </linearGradient>
  <clipPath id="clipPath2262">
   <path d="m0 0h546v546h-546z"/>
  </clipPath>
  <clipPath id="clipPath2270">
   <path d="m152 265h26v-45h-26z"/>
  </clipPath>
  <linearGradient id="linearGradient2280" x2="1" gradientTransform="matrix(26.2,0,0,-26.2,152,242)" gradientUnits="userSpaceOnUse">
   <stop stop-color="#69a15e" offset="0"/>
   <stop stop-color="#b0d136" offset="1"/>
  </linearGradient>
  <clipPath id="clipPath2302">
   <path d="m402 374h54v-32h-54z"/>
  </clipPath>
  <linearGradient id="linearGradient2314" x2="1" gradientTransform="matrix(53.4,0,0,-53.4,402,358)" gradientUnits="userSpaceOnUse">
   <stop stop-color="#045b37" offset="0"/>
   <stop stop-color="#045b37" offset=".553"/>
   <stop stop-color="#009349" offset="1"/>
  </linearGradient>
 </defs>
 <g transform="matrix(1.33,0,0,-1.33,0,726)">
  <path d="m0 546v-175h149l234 51h162v124z" fill="url(#linearGradient840)"/>
  <g clip-path="url(#clipPath850)">
   <g transform="translate(0,546)">
    <path d="m0 0v-175h149l234 51h162v124z" fill="none" stroke="#000" stroke-miterlimit="10"/>
   </g>
  </g>
  <path d="m48.8 499 42.3-76h86.9l-42 76z" fill="url(#linearGradient872)"/>
  <path d="m161 546-25-47 42-76 44 76-26 47z" fill="url(#linearGradient892)"/>
  <g transform="translate(171,459)">
   <path d="m0 0-6.61-11.5h13.1l6.41 11.5z" fill="none" stroke="#fff" stroke-miterlimit="10"/>
  </g>
  <g transform="translate(184,434)" fill="none" stroke="#fff" stroke-miterlimit="10">
   <path d="m0 0-6.46 12.7h-13l7-12.7z"/>
   <path d="m0 0-6.46 12.7 6.46 11.5 6.71-12.8z"/>
  </g>
  <path d="m91.1 423-8.6-17 8.6-18 10.9 17z" fill="url(#linearGradient922)"/>
  <path d="m222 499-73-128 73-128 75 128z" fill="url(#linearGradient942)"/>
  <path d="m61 405 10.4-17h19.7l-8.6 18z" fill="url(#linearGradient960)"/>
  <path d="m0 371 74.3-128h148l-73 128z" fill="url(#linearGradient978)"/>
  <path d="m124 243 14-23h27l-13 23z" fill="url(#linearGradient998)"/>
  <g clip-path="url(#clipPath1008)">
   <g clip-path="url(#clipPath1016)" opacity=".75">
    <path d="m127 291-10-19 10-16 11 17z" fill="url(#linearGradient1028)"/>
    <path d="m94.8 273 10.2-17h22l-10 16z" fill="url(#linearGradient1040)"/>
   </g>
  </g>
  <path d="m156 204 22-39h44l-21 39z" fill="url(#linearGradient1080)"/>
  <path d="m245 204-23 36-21-36 21-39z" fill="url(#linearGradient1098)"/>
  <path d="m216 220 24-43h51l-25 43z" fill="url(#linearGradient1116)"/>
  <path d="m291 262-25-42 25-43 24 43z" fill="url(#linearGradient1136)"/>
  <path d="m324 204h-33l-17 30h33z" fill="url(#linearGradient1154)"/>
  <path d="m326 262-19-28 17-30 18 29z" fill="url(#linearGradient1172)"/>
  <g clip-path="url(#clipPath1182)">
   <g clip-path="url(#clipPath1190)">
    <path d="m337 259 8-16h18l-8 16z" fill="url(#linearGradient1202)"/>
   </g>
   <g clip-path="url(#clipPath1224)">
    <path d="m363 273 8-14-8-16-8 16z" fill="url(#linearGradient1234)"/>
   </g>
  </g>
  <path d="m192 114h31l-16 26h-29z" fill="url(#linearGradient1266)"/>
  <g clip-path="url(#clipPath1276)">
   <g clip-path="url(#clipPath1284)" opacity=".85">
    <path d="m222 165 14-25-13-26-16 26z" fill="url(#linearGradient1294)"/>
   </g>
  </g>
  <path d="m156 153 7-13h15l-7 13z" fill="url(#linearGradient1324)"/>
  <path d="m178 165 7-12-7-13-7 13z" fill="url(#linearGradient1344)"/>
  <path d="m171 101 7-12.6h14l-7 12.6z" fill="url(#linearGradient1362)"/>
  <path d="m192 114 8-14.2-8-11.4-7 12.6z" fill="url(#linearGradient1382)"/>
  <path d="m386 239h22l11-20h-22z" fill="url(#linearGradient1400)"/>
  <path d="m419 258 11-19-11-20-11 20z" fill="url(#linearGradient1420)"/>
  <path d="m347 301 24-42 48-1-25 43z" fill="url(#linearGradient1438)"/>
  <path d="m419 341-25-40 25-43 25 41z" fill="url(#linearGradient1456)"/>
  <path d="m189 342 45-77h91l-45 77z" fill="url(#linearGradient1476)"/>
  <g clip-path="url(#clipPath1486)">
   <g clip-path="url(#clipPath1494)">
    <path d="m325 421-45-79 45-77 46 77z" fill="url(#linearGradient1504)"/>
   </g>
  </g>
  <path d="m408 321-14 21h-23l13-21z" fill="url(#linearGradient1534)"/>
  <path d="m408 321 13 21-13 22-14-22z" fill="url(#linearGradient1552)"/>
  <path d="m320 330 10-16h20l-10 18z" fill="url(#linearGradient1570)"/>
  <path d="m268 421 29-51 59-2-31 53z" fill="url(#linearGradient1588)"/>
  <path d="m268 472h23l10-19h-22z" fill="url(#linearGradient1606)"/>
  <path d="m301 492-10-20 10-19 10 19z" fill="url(#linearGradient1624)"/>
  <path d="m291 508 20-36h44l-22 36z" fill="url(#linearGradient1642)"/>
  <path d="m355 546-22-38 22-36 21 36z" fill="url(#linearGradient1660)"/>
  <path d="m389 472h25l12-21h-26z" fill="url(#linearGradient1678)"/>
  <path d="m426 494-12-22 12-21 11 22z" fill="url(#linearGradient1696)"/>
  <path d="m443 492h31l15-27h-31z" fill="url(#linearGradient1714)"/>
  <path d="m489 517-15-25 15-27 16 26z" fill="url(#linearGradient1732)"/>
  <path d="m505 352-42 69 42 70 40-69z" fill="url(#linearGradient1750)"/>
  <path d="m424 352h81l-42 69-80 1z" fill="url(#linearGradient1768)"/>
  <path d="m355 472-30-51 31-53 27 54z" fill="url(#linearGradient1786)"/>
  <g clip-path="url(#clipPath1796)">
   <g clip-path="url(#clipPath1804)">
    <path d="m347 421 11-18-11-20-11 19z" fill="url(#linearGradient1814)"/>
   </g>
   <g clip-path="url(#clipPath1836)">
    <path d="m314 403 11-20h22l-11 19z" fill="url(#linearGradient1848)"/>
   </g>
  </g>
  <path d="m233 390 10-19h20l-9 19z" fill="url(#linearGradient1880)"/>
  <path d="m263 404-9-14 9-19 10 17z" fill="url(#linearGradient1900)"/>
  <g transform="translate(255,155)">
   <path d="m0 0 11.1-20.4h24.4l-10.3 20.4z" fill="none" stroke="#58595b" stroke-miterlimit="10"/>
  </g>
  <g transform="translate(291,177)">
   <path d="m0 0-10.3-21.5 10.3-20.5 11.3 21z" fill="none" stroke="#58595b" stroke-miterlimit="10"/>
  </g>
  <g transform="translate(255,155)">
   <path d="m0 0 11.1 21.5h24.4l-10.3-21.5z" fill="none" stroke="#58595b" stroke-miterlimit="10"/>
  </g>
  <g transform="translate(266,134)">
   <path d="m0 0 5.75-10.6h12.6l-5.4 10.6z" fill="none" stroke="#808285" stroke-miterlimit="10"/>
  </g>
  <g transform="translate(285,145)">
   <path d="m0 0-5.34-11.1 5.34-10.6 5.84 10.8z" fill="none" stroke="#808285" stroke-miterlimit="10"/>
  </g>
  <g transform="translate(266,134)">
   <path d="m0 0 5.75 11.1h12.6l-5.4-11.1z" fill="none" stroke="#808285" stroke-miterlimit="10"/>
  </g>
  <g clip-path="url(#clipPath1934)">
   <g clip-path="url(#clipPath1942)" opacity=".75">
    <path d="m456 404-17-30 17-31 18 30z" fill="url(#linearGradient1952)"/>
   </g>
   <g clip-path="url(#clipPath1974)">
    <path d="m359 403h13l8-13h-13z" fill="url(#linearGradient1986)"/>
   </g>
  </g>
  <path d="m386 403-6-13-8 13 7 12z" fill="url(#linearGradient2018)"/>
  <path d="m400 451-8-15 10-15 8 15z" fill="url(#linearGradient2038)"/>
  <path d="m375 436h17l10-15-19 1z" fill="url(#linearGradient2058)"/>
  <path d="m350 347-10-15 10-18 9 16z" fill="url(#linearGradient2078)"/>
  <g clip-path="url(#clipPath2088)">
   <g clip-path="url(#clipPath2096)">
    <path d="m263 371 17-29-16-28-18 28z" fill="url(#linearGradient2108)"/>
   </g>
   <g clip-path="url(#clipPath2130)">
    <path d="m280 284h34l-17 30h-33z" fill="url(#linearGradient2142)"/>
   </g>
   <g clip-path="url(#clipPath2164)">
    <path d="m314 342-17-28 17-30 16 30z" fill="url(#linearGradient2176)"/>
   </g>
   <g clip-path="url(#clipPath2198)">
    <path d="m214 342 16-28h34l-18 28z" fill="url(#linearGradient2210)"/>
   </g>
  </g>
  <g transform="translate(178,422)">
   <path d="m0 0 13.2-25.1h29.1l-14.3 25.1z" fill="none" stroke="#fff" stroke-miterlimit="10"/>
  </g>
  <g transform="translate(220,446)">
   <path d="m0 0-29.2-0.743-13.1-24.1h28z" fill="none" stroke="#fff" stroke-miterlimit="10"/>
  </g>
  <g transform="translate(234,422)">
   <path d="m0 0-14-25.1-14.3 25.1 14.3 24.8z" fill="none" stroke="#fff" stroke-miterlimit="10"/>
  </g>
  <path d="m263 371-17-29h34z" fill="url(#linearGradient2252)"/>
  <g clip-path="url(#clipPath2262)">
   <g clip-path="url(#clipPath2270)" opacity=".85">
    <path d="m165 265-13-22 13-23 13 21z" fill="url(#linearGradient2280)"/>
   </g>
   <g clip-path="url(#clipPath2302)" opacity=".75">
    <path d="m402 374 19-32 35 1-17 31z" fill="url(#linearGradient2314)"/>
   </g>
  </g>
  <g transform="translate(421,299)">
   <path d="m0 0-13.1 23 23-0.6 13.6-22.4z" fill="none" stroke="#58595b" stroke-miterlimit="10"/>
  </g>
  <g transform="translate(444,342)" fill="none" stroke="#58595b" stroke-miterlimit="10">
   <path d="m0 0-13.6-20.7 13.6-22.3 11.8 21.5z"/>
   <path d="m0 0h-23.5l-13.1-20.1"/>
  </g>
 </g>
</svg>
